{
  "asset": { "version": "2.0", "generator": "THREE.GLTFExporter" },
  "scenes": [{ "name": "AuxScene", "nodes": [0] }],
  "scene": 0,
  "nodes": [{ "mesh": 0 }],
  "bufferViews": [
    {
      "buffer": 0,
      "byteOffset": 0,
      "byteLength": 253632,
      "target": 34962,
      "byteStride": 12
    },
    {
      "buffer": 0,
      "byteOffset": 253632,
      "byteLength": 253632,
      "target": 34962,
      "byteStride": 12
    },
    {
      "buffer": 0,
      "byteOffset": 507264,
      "byteLength": 253632,
      "target": 34962,
      "byteStride": 12
    },
    { "buffer": 0, "byteOffset": 760896, "byteLength": 98688, "target": 34963 },
    { "buffer": 0, "byteOffset": 859584, "byteLength": 98688, "target": 34963 }
  ],
  "buffers": [
    {
      "byteLength": 958272,
      "uri": "data:application/octet-stream;base64,"
    }
  ],
  "accessors": [
    {
      "bufferView": 0,
      "componentType": 5126,
      "count": 21136,
      "max": [0.40644335746765137, 0.906767725944519, 0.01226133480668068],
      "min": [
        -0.40644338726997375, 0.09323222190141678, -0.0022613350301980972
      ],
      "type": "VEC3"
    },
    {
      "bufferView": 1,
      "componentType": 5126,
      "count": 21136,
      "max": [1, 1, 1],
      "min": [-1, -1, -1],
      "type": "VEC3"
    },
    {
      "bufferView": 2,
      "componentType": 5126,
      "count": 21136,
      "max": [0.05612849071621895, 0.05612849071621895, 0.05612849071621895],
      "min": [0, 0, 0],
      "type": "VEC3"
    },
    {
      "bufferView": 3,
      "componentType": 5125,
      "count": 24672,
      "max": [15255],
      "min": [0],
      "type": "SCALAR"
    },
    {
      "bufferView": 4,
      "componentType": 5125,
      "count": 24672,
      "max": [21135],
      "min": [15256],
      "type": "SCALAR"
    }
  ],
  "materials": [
    {
      "pbrMetallicRoughness": {
        "baseColorFactor": [1, 1, 1, 0.651],
        "metallicFactor": 0,
        "roughnessFactor": 0.1
      },
      "alphaMode": "BLEND"
    },
    {
      "pbrMetallicRoughness": { "metallicFactor": 0, "roughnessFactor": 0.9 },
      "extensions": { "KHR_materials_unlit": {} }
    }
  ],
  "meshes": [
    {
      "primitives": [
        {
          "mode": 4,
          "attributes": { "POSITION": 0, "NORMAL": 1, "COLOR_0": 2 },
          "indices": 3,
          "material": 0
        },
        {
          "mode": 4,
          "attributes": { "POSITION": 0, "NORMAL": 1, "COLOR_0": 2 },
          "indices": 4,
          "material": 1
        }
      ]
    }
  ],
  "extensionsUsed": ["KHR_materials_unlit"]
}
